<?xml version="1.0" encoding="UTF-8"?>
<svg version="1.1" xmlns="http://www.w3.org/2000/svg" width="422" height="301">
<path d="M0 0 C-0.22453353 10.10400905 -8.02221972 18.35807576 -14 26 C-9.96137947 26.40978285 -9.96137947 26.40978285 -6 26 C-3.81378992 23.34752558 -3.81378992 23.34752558 -2 20 C4.04696562 13.3291411 11.28348948 11.19200144 20 10 C22.5398563 9.8855201 25.08259691 9.82523749 27.625 9.8125 C29.56246094 9.79123047 29.56246094 9.79123047 31.5390625 9.76953125 C34.70287989 9.98021435 36.37665467 10.31546607 39 12 C38.15015912 17.05546367 34.96486621 19.08671913 31 22 C28.70670679 23.4460611 26.39784687 24.72767309 24 26 C24.96486328 25.93039063 24.96486328 25.93039063 25.94921875 25.859375 C39.14588737 25.33226127 50.84597561 29.89409639 60.79296875 38.5625 C61.90884328 39.66274603 62.96555232 40.82286989 64 42 C63 45 63 45 61.4375 46.1640625 C57.97891563 47.35017958 54.61607405 47.38138741 51 47.375 C50.24831543 47.37628906 49.49663086 47.37757812 48.72216797 47.37890625 C42.81878816 47.26825717 37.82290308 46.08216725 32.3203125 43.875 C29.94546214 42.82357544 29.94546214 42.82357544 27 43 C27.42152344 43.50789063 27.84304688 44.01578125 28.27734375 44.5390625 C31.53879356 48.63697826 33.72899438 51.57988765 34 57 C27.5297969 59.26067337 19.83068742 56.30020311 13.87890625 53.56640625 C11.20360281 52.11077982 8.59356368 50.59603919 6 49 C4.6078125 48.1646875 4.6078125 48.1646875 3.1875 47.3125 C2.465625 46.879375 1.74375 46.44625 1 46 C1.37253906 46.61488281 1.74507812 47.22976562 2.12890625 47.86328125 C2.60199219 48.67152344 3.07507813 49.47976562 3.5625 50.3125 C4.03816406 51.11300781 4.51382813 51.91351563 5.00390625 52.73828125 C6 55 6 55 5 58 C-5.55465428 60.15146572 -14.65805379 56.81809037 -24 52 C-24.33 52.33 -24.66 52.66 -25 53 C-24.01 54.0828125 -24.01 54.0828125 -23 55.1875 C-20.78769447 58.29855465 -20.80288526 59.33489775 -21 63 C-34.80140026 65.17100678 -46.09797643 66.45625738 -58.76171875 59.70703125 C-61.90587382 58.71385138 -63.8301025 59.12212112 -67 60 C-70.12581433 61.73082762 -70.12581433 61.73082762 -73.1875 64 C-73.74993408 64.40154297 -74.31236816 64.80308594 -74.8918457 65.21679688 C-84.10175452 71.86962296 -92.67788073 79.27620303 -101 87 C-101.72703125 87.6496875 -102.4540625 88.299375 -103.203125 88.96875 C-114.05422218 99.11725815 -122.73235278 111.7331561 -127 126 C-126.62230469 125.40574219 -126.24460938 124.81148438 -125.85546875 124.19921875 C-113.17789996 105.10864093 -94.90547716 93.49217564 -73.0625 87.25 C-72.37188477 87.05116211 -71.68126953 86.85232422 -70.96972656 86.64746094 C-58.7421046 83.36687944 -46.34592646 82.5890666 -33.75 82.625 C-32.66649261 82.62581573 -32.66649261 82.62581573 -31.56109619 82.62664795 C-20.268926 82.66564779 -9.77544218 83.43410625 1 87 C1.64485352 87.20898926 2.28970703 87.41797852 2.95410156 87.63330078 C22.80035795 94.2338868 39.57227834 106.76310505 49.27734375 125.4609375 C52.5364898 132.62873914 54.49327368 141.15352694 52.125 148.83984375 C51.39755964 150.51952375 50.64513287 152.1886964 49.86328125 153.84375 C48.2401986 157.8977845 49.68867612 161.06602836 51 165 C51.68354622 173.37344122 49.31268208 181.47299059 44 188 C23.03844794 208.96155206 -25.85419555 202.87446626 -53 203 C-110.74240022 202.8352264 -110.74240022 202.8352264 -125 190 C-129.51371786 185.10084107 -133.11800117 180.14774127 -132.921875 173.25390625 C-132.32925655 165.6585131 -132.32925655 165.6585131 -131 163 C-130.94825371 158.10480123 -131.87503252 153.8967509 -134 149.5 C-138.79640831 139.20182921 -136.48854493 129.43356676 -133 119 C-128.79183465 108.05877009 -122.46136704 98.93676322 -115 90 C-114.06565512 88.85087074 -113.13207411 87.70112001 -112.19921875 86.55078125 C-106.365079 79.43157981 -100.21833947 73.2713653 -92.9375 67.625 C-90.80536184 65.29068146 -90.80536184 65.29068146 -91.02734375 63.11328125 C-91.26870166 61.60276042 -91.51936949 60.0937094 -91.77734375 58.5859375 C-92.53849013 49.74595674 -88.3074849 40.8288114 -83 34 C-75.02705336 25.62563765 -75.02705336 25.62563765 -70 25 C-68.00604142 26.99395858 -68.18736808 30.12633475 -67.921875 32.8125 C-68.07567276 39.08744859 -70.14906433 45.04205257 -72 51 C-71.05125 50.34 -70.1025 49.68 -69.125 49 C-66 47 -66 47 -64 47 C-64.226875 45.88625 -64.45375 44.7725 -64.6875 43.625 C-65.51770494 36.71476478 -63.34162683 30.5100409 -59.375 24.875 C-54.5012718 18.89801492 -48.39996753 12.58138402 -41 10 C-38.83203125 10.44140625 -38.83203125 10.44140625 -37 11 C-37.16506677 20.24373904 -41.13804708 27.78200619 -45 36 C-41.67780133 35.08400284 -38.81071612 34.021014 -36 32 C-35.05568164 29.53058531 -34.80842804 27.27788835 -34.5 24.65625 C-32.99793434 16.67652618 -25.66688441 9.39409775 -19.28125 4.75 C-13.25171717 1.02265243 -7.02784431 -0.35139222 0 0 Z M16 34 C17.485 34.99 17.485 34.99 19 36 C19 35.34 19 34.68 19 34 C18.01 34 17.02 34 16 34 Z M20 35 C20 38 20 38 20 38 Z M-15 36 C-11.96623556 38.30367627 -8.87444175 40.50861299 -5.75 42.6875 C-4.41195312 43.62142578 -4.41195312 43.62142578 -3.046875 44.57421875 C-2.37140625 45.04472656 -1.6959375 45.51523437 -1 46 C-0.67 45.34 -0.34 44.68 0 44 C-0.95421808 42.85073734 -1.91352045 41.70569459 -2.875 40.5625 C-3.40867188 39.92441406 -3.94234375 39.28632812 -4.4921875 38.62890625 C-5.9222757 36.89194996 -5.9222757 36.89194996 -8 36 C-10.3329866 35.95977609 -12.66706666 35.95679753 -15 36 Z M-45 46 C-43.0636296 46.50435694 -41.12585854 47.00333874 -39.1875 47.5 C-38.10855469 47.7784375 -37.02960938 48.056875 -35.91796875 48.34375 C-33.01066025 49.10970948 -33.01066025 49.10970948 -30 49 C-32.25471949 45.4826376 -33.41362671 44.16753523 -37.5 43 C-41.39525023 43 -42.1435583 43.59457541 -45 46 Z M-112 121 C-112.48082031 121.49886719 -112.96164063 121.99773437 -113.45703125 122.51171875 C-118.89371721 128.41637261 -123.18165212 135.06037938 -123.625 143.25 C-123.40648899 146.81901316 -122.88788221 148.19891867 -121.0625 151.4375 C-108.36972262 162.05798719 -84.84646639 159.30049867 -69.31640625 159.265625 C-67.16421973 159.26697686 -65.01203351 159.26892169 -62.85984802 159.27142334 C-58.37618059 159.27435078 -53.89259354 159.27015479 -49.40893555 159.26074219 C-43.71307495 159.24935616 -38.0174031 159.25591717 -32.32154942 159.26788712 C-27.88497034 159.27517644 -23.44843468 159.27278552 -19.01185417 159.26763153 C-16.91387852 159.26631414 -14.8158987 159.26787422 -12.71792793 159.27259064 C15.43604848 160.57398099 15.43604848 160.57398099 40.25 150.4375 C42.81663077 145.39590385 43.07230088 141.54137421 42 136 C36.01338824 119.52291685 24.40045958 108.84224747 8.875 101.3125 C-28.56140648 83.91727348 -83.27641662 89.94747743 -112 121 Z M-129 128 C-128 130 -128 130 -128 130 Z M30.74609375 165.62109375 C29.88951172 165.75193359 29.03292969 165.88277344 28.15039062 166.01757812 C26.39960284 166.28857839 24.64953302 166.56427837 22.90039062 166.84570312 C8.26747395 169.05302315 -6.5860499 169.15551661 -21.35546875 169.1328125 C-22.95616165 169.13348999 -24.55685444 169.13446367 -26.157547 169.13571167 C-29.48435462 169.1371699 -32.81113505 169.13509689 -36.13793945 169.13037109 C-40.3285075 169.12469748 -44.51901174 169.12804607 -48.70957756 169.13380718 C-97.58222971 169.19100729 -97.58222971 169.19100729 -111.671875 166.41015625 C-114.83707811 165.85252818 -117.79639462 165.85438157 -121 166 C-122.56253641 169.5591107 -123.04563571 171.67484554 -122.5 175.5625 C-120.13532572 180.98154522 -116.87681505 183.11639816 -111.72265625 185.54296875 C-90.75659231 193.74899377 -65.42830922 192.18162097 -43.3125 192.1875 C-42.32514862 192.18849701 -41.33779724 192.18949402 -40.32052612 192.19052124 C-13.42398727 192.26466352 -13.42398727 192.26466352 13.3125 189.6875 C14.13943359 189.58244141 14.96636719 189.47738281 15.81835938 189.36914062 C24.66445357 188.0954701 32.99212992 184.85884318 39 178 C40.96020543 173.99791392 41.41720472 171.25161416 40 167 C39.01 166.01 39.01 166.01 38 165 C35.4466511 165 33.25343297 165.22193548 30.74609375 165.62109375 Z " fill="#C6A848" transform="translate(257,2)"/>
<path d="M0 0 C6.93 0 13.86 0 21 0 C22.155 2.10375 23.31 4.2075 24.5 6.375 C24.86544922 7.0354834 25.23089844 7.6959668 25.60742188 8.37646484 C28 12.77777778 28 12.77777778 28 15 C28.66 15.33 29.32 15.66 30 16 C31.05352843 18.30965848 32.05719096 20.6429774 33 23 C33 18.38 33 13.76 33 9 C31.35 8.34 29.7 7.68 28 7 C28.33 4.69 28.66 2.38 29 0 C35.93 0 42.86 0 50 0 C50 2.64 50 5.28 50 8 C48.35 8.33 46.7 8.66 45 9 C44.67 22.86 44.34 36.72 44 51 C40.04 51 36.08 51 32 51 C27.33333333 41.66666667 22.66666667 32.33333333 18 23 C17.01 23 16.02 23 15 23 C15.33 29.27 15.66 35.54 16 42 C17.65 42.33 19.3 42.66 21 43 C21 45.64 21 48.28 21 51 C14.07 51 7.14 51 0 51 C0 48.36 0 45.72 0 43 C1.65 43 3.3 43 5 43 C5 31.45 5 19.9 5 8 C3.35 8 1.7 8 0 8 C0 5.36 0 2.72 0 0 Z M15 17 C15.33 18.32 15.66 19.64 16 21 C16 19.68 16 18.36 16 17 C15.67 17 15.34 17 15 17 Z " fill="#3F0313" transform="translate(347,228)"/>
<path d="M0 0 C14.52 0 29.04 0 44 0 C49 14 49 14 48 18 C45.69 18.33 43.38 18.66 41 19 C40.443125 18.071875 39.88625 17.14375 39.3125 16.1875 C36.88168882 12.83692243 35.83032227 11.46693193 32 10 C28.29392775 9.76444456 24.72163649 9.86548302 21 10 C20.67 13.63 20.34 17.26 20 21 C21.98 20.67 23.96 20.34 26 20 C26.33 17.69 26.66 15.38 27 13 C29.31 13 31.62 13 34 13 C34.19588601 16.6454342 34.38030536 20.2913579 34.5625 23.9375 C34.64661133 25.49887695 34.64661133 25.49887695 34.73242188 27.09179688 C34.78076172 28.08115234 34.82910156 29.07050781 34.87890625 30.08984375 C34.9260376 31.00628662 34.97316895 31.92272949 35.02172852 32.86694336 C35 35 35 35 34 36 C31.66702567 36.04092937 29.33294775 36.04241723 27 36 C26.34 34.02 25.68 32.04 25 30 C23.35 29.67 21.7 29.34 20 29 C20 33.29 20 37.58 20 42 C31.26296085 41.65947822 31.26296085 41.65947822 40.25 35.5625 C41.71679608 33.41469146 42.94583579 31.37186948 44 29 C46.31 29.66 48.62 30.32 51 31 C50.38656907 35.26845687 49.39373582 39.17127313 48 43.25 C47.4740625 44.80460937 47.4740625 44.80460937 46.9375 46.390625 C46 49 46 49 45 51 C38.75220534 51.16784025 32.50424527 51.32780106 26.25610352 51.48217773 C24.12877795 51.53568206 22.00149764 51.59101764 19.87426758 51.64819336 C16.8238298 51.72986981 13.77329203 51.80504681 10.72265625 51.87890625 C9.76537125 51.90594131 8.80808624 51.93297638 7.8217926 51.96083069 C6.94095505 51.98092697 6.06011749 52.00102325 5.15258789 52.02172852 C4.37315323 52.04171402 3.59371857 52.06169952 2.79066467 52.08229065 C1 52 1 52 0 51 C-0.14115161 48.32941149 -0.04247107 45.67567762 0 43 C2.475 42.505 2.475 42.505 5 42 C5.33 30.78 5.66 19.56 6 8 C5.01 8.33 4.02 8.66 3 9 C2.01 8.67 1.02 8.34 0 8 C0 5.36 0 2.72 0 0 Z " fill="#3E0312" transform="translate(191,228)"/>
<path d="M0 0 C1.80500977 -0.01836914 1.80500977 -0.01836914 3.64648438 -0.03710938 C21.66538388 -0.06663242 21.66538388 -0.06663242 28.55859375 6.5546875 C31.60848005 10.1661676 32.1427782 13.61575443 31.8125 18.1875 C31.00387323 22.94840369 29.1975971 26.3118524 25.421875 29.4453125 C18.93665323 33.47742864 11.26998158 32.53121007 3.9375 32.1875 C4.2675 35.8175 4.5975 39.4475 4.9375 43.1875 C6.5875 43.5175 8.2375 43.8475 9.9375 44.1875 C9.9375 46.8275 9.9375 49.4675 9.9375 52.1875 C1.6875 52.1875 -6.5625 52.1875 -15.0625 52.1875 C-15.0625 49.5475 -15.0625 46.9075 -15.0625 44.1875 C-13.4125 44.1875 -11.7625 44.1875 -10.0625 44.1875 C-10.0625 32.9675 -10.0625 21.7475 -10.0625 10.1875 C-11.7125 9.8575 -13.3625 9.5275 -15.0625 9.1875 C-15.0625 6.5475 -15.0625 3.9075 -15.0625 1.1875 C-10.69860076 -0.99444962 -4.79165059 0.00251003 0 0 Z M6.9375 11.1875 C5.73188816 12.17017859 5.73188816 12.17017859 5.83984375 14.03515625 C5.85144531 14.76605469 5.86304688 15.49695313 5.875 16.25 C5.895625 17.549375 5.91625 18.84875 5.9375 20.1875 C8.2390411 20.96552187 8.2390411 20.96552187 10.9375 21.1875 C13.24254044 19.85596734 13.24254044 19.85596734 14.9375 18.1875 C14.66715366 15.75032742 14.66715366 15.75032742 13.9375 13.1875 C10.98372502 10.81769987 10.98372502 10.81769987 6.9375 11.1875 Z " fill="#410313" transform="translate(260.0625,226.8125)"/>
<path d="M0 0 C0.78246094 -0.02578125 1.56492187 -0.0515625 2.37109375 -0.078125 C5.13990914 0.33645698 5.76919087 1.1434719 7.5625 3.25 C8.50376892 5.12258911 8.50376892 5.12258911 9.30834961 7.24658203 C9.61554428 8.04395782 9.92273895 8.84133362 10.23924255 9.66287231 C10.72216515 10.94736771 10.72216515 10.94736771 11.21484375 12.2578125 C11.91559423 14.06656957 12.61677921 15.87515834 13.31835938 17.68359375 C14.41480285 20.53666235 15.50623537 23.39144975 16.58959961 26.24951172 C17.63867804 29.00769894 18.70667788 31.7579471 19.77734375 34.5078125 C20.09726791 35.36819122 20.41719208 36.22856995 20.74681091 37.11502075 C21.05715775 37.90609222 21.36750458 38.6971637 21.68725586 39.51220703 C22.08671669 40.56119675 22.08671669 40.56119675 22.49424744 41.63137817 C23.46279565 43.45586297 23.46279565 43.45586297 25.67970276 43.98361206 C26.30102585 44.07152008 26.92234894 44.1594281 27.5625 44.25 C27.5625 46.89 27.5625 49.53 27.5625 52.25 C23.77123402 52.44628414 19.97947828 52.63053896 16.1875 52.8125 C14.56714844 52.89661133 14.56714844 52.89661133 12.9140625 52.98242188 C11.8828125 53.03076172 10.8515625 53.07910156 9.7890625 53.12890625 C8.83596191 53.1760376 7.88286133 53.22316895 6.90087891 53.27172852 C4.5625 53.25 4.5625 53.25 2.5625 52.25 C2.5625 49.61 2.5625 46.97 2.5625 44.25 C4.2125 44.25 5.8625 44.25 7.5625 44.25 C7.0675 40.785 7.0675 40.785 6.5625 37.25 C1.2825 37.25 -3.9975 37.25 -9.4375 37.25 C-10.0975 39.56 -10.7575 41.87 -11.4375 44.25 C-9.7875 44.25 -8.1375 44.25 -6.4375 44.25 C-5.4375 46.25 -5.4375 46.25 -6.4375 52.25 C-13.0375 52.25 -19.6375 52.25 -26.4375 52.25 C-26.4375 49.61 -26.4375 46.97 -26.4375 44.25 C-25.82108643 44.18224365 -25.20467285 44.1144873 -24.56958008 44.04467773 C-22.26071175 43.44224684 -22.26071175 43.44224684 -21.26831055 41.21899414 C-20.95676025 40.33332764 -20.64520996 39.44766113 -20.32421875 38.53515625 C-19.78776733 37.05221069 -19.78776733 37.05221069 -19.24047852 35.53930664 C-18.87237061 34.47446045 -18.5042627 33.40961426 -18.125 32.3125 C-17.33671794 30.12471864 -16.54764694 27.93722139 -15.7578125 25.75 C-15.36883789 24.656875 -14.97986328 23.56375 -14.57910156 22.4375 C-12.94433418 17.87301691 -11.23809813 13.33847572 -9.5 8.8125 C-9.07690552 7.67856812 -9.07690552 7.67856812 -8.64526367 6.52172852 C-6.60782401 1.20767179 -5.62356154 0.11080909 0 0 Z M-2.4375 23.25 C-1.4375 26.25 -1.4375 26.25 -1.4375 26.25 Z " fill="#3F0312" transform="translate(317.4375,226.75)"/>
<path d="M0 0 C4.29 0 8.58 0 13 0 C16.89624415 8.36839299 20.39401449 16.8394832 23.75 25.4375 C24.24848845 26.70255652 24.74718538 27.9675309 25.24609375 29.23242188 C29.18608583 39.28749755 29.18608583 39.28749755 30 43 C31.32 43 32.64 43 34 43 C34.495 46.465 34.495 46.465 35 50 C31.64880481 52.23413013 30.5822245 52.23847762 26.67578125 52.1953125 C25.13374023 52.18564453 25.13374023 52.18564453 23.56054688 52.17578125 C22.48869141 52.15902344 21.41683594 52.14226562 20.3125 52.125 C19.22904297 52.11597656 18.14558594 52.10695313 17.02929688 52.09765625 C14.3526429 52.0740734 11.67643203 52.04116126 9 52 C9 49.03 9 46.06 9 43 C11.475 42.505 11.475 42.505 14 42 C13.505 39.03 13.505 39.03 13 36 C7.72 36 2.44 36 -3 36 C-3.33 37.98 -3.66 39.96 -4 42 C-2.35 42.66 -0.7 43.32 1 44 C0.67 46.31 0.34 48.62 0 51 C-6.6 51 -13.2 51 -20 51 C-20 48.36 -20 45.72 -20 43 C-19.39414063 42.95617187 -18.78828125 42.91234375 -18.1640625 42.8671875 C-15.75875137 42.16719333 -15.75875137 42.16719333 -14.6484375 39.5703125 C-14.01808594 37.86488281 -14.01808594 37.86488281 -13.375 36.125 C-13.13700684 35.49456787 -12.89901367 34.86413574 -12.65380859 34.21459961 C-12.09446943 32.72411715 -11.54328585 31.23056136 -10.99804688 29.73486328 C-9.81121638 26.48269225 -8.60101319 23.23956943 -7.390625 19.99609375 C-4.91000805 13.33694906 -2.45102759 6.67008891 0 0 Z " fill="#400312" transform="translate(108,228)"/>
<path d="M0 0 C1.5631897 0.07069702 1.5631897 0.07069702 3.15795898 0.14282227 C4.28266602 0.19116211 5.40737305 0.23950195 6.56616211 0.28930664 C8.34216797 0.37341797 8.34216797 0.37341797 10.15405273 0.45922852 C11.34192383 0.51143555 12.52979492 0.56364258 13.75366211 0.61743164 C16.69986339 0.74758511 19.64576549 0.88256492 22.59155273 1.02172852 C22.59155273 3.66172852 22.59155273 6.30172852 22.59155273 9.02172852 C20.94155273 9.02172852 19.29155273 9.02172852 17.59155273 9.02172852 C18.54801704 11.91819119 19.50665341 14.81390428 20.46655273 17.70922852 C20.7359668 18.52584961 21.00538086 19.3424707 21.28295898 20.18383789 C22.37423696 23.47098009 23.46432354 26.71363428 24.78686523 29.91625977 C25.59155273 32.02172852 25.59155273 32.02172852 25.59155273 35.02172852 C26.25155273 35.02172852 26.91155273 35.02172852 27.59155273 35.02172852 C27.73850586 34.48547852 27.88545898 33.94922852 28.03686523 33.39672852 C30.41315221 25.09338091 33.50245908 17.0793644 36.59155273 9.02172852 C34.94155273 9.02172852 33.29155273 9.02172852 31.59155273 9.02172852 C31.59155273 6.38172852 31.59155273 3.74172852 31.59155273 1.02172852 C34.41600866 0.08024321 35.73326892 -0.05138843 38.60327148 0.14282227 C39.3605957 0.19116211 40.11791992 0.23950195 40.89819336 0.28930664 C41.68387695 0.34538086 42.46956055 0.40145508 43.27905273 0.45922852 C44.07633789 0.51143555 44.87362305 0.56364258 45.69506836 0.61743164 C47.66091796 0.74691874 49.62628938 0.88362893 51.59155273 1.02172852 C51.59155273 3.66172852 51.59155273 6.30172852 51.59155273 9.02172852 C50.27155273 9.02172852 48.95155273 9.02172852 47.59155273 9.02172852 C47.23319336 10.15610352 46.87483398 11.29047852 46.50561523 12.45922852 C44.21827612 19.31855802 41.52335811 26.02263563 38.8659668 32.74487305 C37.95825458 35.04273518 37.05595644 37.342675 36.15405273 39.64282227 C35.57885267 41.10258412 35.00334332 42.56222415 34.42749023 44.02172852 C34.15770355 44.71016846 33.88791687 45.3986084 33.60995483 46.10791016 C31.70643501 50.90684624 31.70643501 50.90684624 30.59155273 52.02172852 C28.4051582 52.09431798 26.21654884 52.10546634 24.02905273 52.08422852 C22.23274414 52.07069336 22.23274414 52.07069336 20.40014648 52.05688477 C19.47331055 52.0452832 18.54647461 52.03368164 17.59155273 52.02172852 C17.13304932 50.79542725 16.6745459 49.56912598 16.20214844 48.30566406 C14.49514266 43.75373343 12.76608669 39.21044843 11.03027344 34.66943359 C10.28237308 32.70362135 9.54045685 30.73552149 8.8046875 28.76513672 C7.74543721 25.93166005 6.66486985 23.10713368 5.57983398 20.28344727 C5.25565994 19.40210617 4.9314859 18.52076508 4.5974884 17.61271667 C2.68143334 12.69838719 1.45387334 10.47559531 -3.40844727 8.02172852 C-3.78344727 4.39672852 -3.78344727 4.39672852 -3.40844727 1.02172852 C-2.40844727 0.02172852 -2.40844727 0.02172852 0 0 Z " fill="#3F0312" transform="translate(37.408447265625,226.978271484375)"/>
<path d="M0 0 C1.5631897 0.07069702 1.5631897 0.07069702 3.15795898 0.14282227 C4.28266602 0.19116211 5.40737305 0.23950195 6.56616211 0.28930664 C8.34216797 0.37341797 8.34216797 0.37341797 10.15405273 0.45922852 C11.34192383 0.51143555 12.52979492 0.56364258 13.75366211 0.61743164 C16.69986339 0.74758511 19.64576549 0.88256492 22.59155273 1.02172852 C22.59155273 3.33172852 22.59155273 5.64172852 22.59155273 8.02172852 C21.95217773 8.14547852 21.31280273 8.26922852 20.65405273 8.39672852 C19.97342773 8.60297852 19.29280273 8.80922852 18.59155273 9.02172852 C18.26155273 9.68172852 17.93155273 10.34172852 17.59155273 11.02172852 C17.26155273 11.02172852 16.93155273 11.02172852 16.59155273 11.02172852 C16.59155273 21.25172852 16.59155273 31.48172852 16.59155273 42.02172852 C24.79113138 42.29886485 24.79113138 42.29886485 30.59155273 38.02172852 C32.44976486 35.4525909 34.06732746 32.80040468 35.59155273 30.02172852 C37.90155273 31.01172852 40.21155273 32.00172852 42.59155273 33.02172852 C42.1814556 34.48192287 41.76295395 35.93975623 41.34155273 37.39672852 C41.10952148 38.20883789 40.87749023 39.02094727 40.63842773 39.85766602 C39.1622494 44.31924977 37.33688472 48.65839855 35.59155273 53.02172852 C16.28655273 52.52672852 16.28655273 52.52672852 -3.40844727 52.02172852 C-3.40844727 49.38172852 -3.40844727 46.74172852 -3.40844727 44.02172852 C-0.93344727 43.52672852 -0.93344727 43.52672852 1.59155273 43.02172852 C1.59155273 32.13172852 1.59155273 21.24172852 1.59155273 10.02172852 C-0.05844727 9.69172852 -1.70844727 9.36172852 -3.40844727 9.02172852 C-3.50610352 2.86938477 -3.50610352 2.86938477 -3.40844727 1.02172852 C-2.40844727 0.02172852 -2.40844727 0.02172852 0 0 Z " fill="#3F0312" transform="translate(147.408447265625,226.978271484375)"/>
<path d="M0 0 C2.375 0.8125 2.375 0.8125 4.375 2.8125 C4.375 5.1875 4.375 5.1875 3.375 7.8125 C0.1703889 10.56995607 -1.75793778 11.74827317 -6 12.0625 C-6.86625 11.98 -7.7325 11.8975 -8.625 11.8125 C-9.3125 10.125 -9.3125 10.125 -9.625 7.8125 C-7.59215762 3.42584013 -5.19737532 -0.37124109 0 0 Z " fill="#C8AC48" transform="translate(190.625,108.1875)"/>
<path d="M0 0 C5.75 0.875 5.75 0.875 8 2 C8 2.66 8 3.32 8 4 C8.66 4 9.32 4 10 4 C10.625 6.3125 10.625 6.3125 11 9 C10.01 10.485 10.01 10.485 9 12 C5.64842589 12.43716184 3.67884594 12.36694375 0.6875 10.75 C-1.26147148 8.72884439 -1.83545339 7.79729233 -2 5 C-1.0625 2.25 -1.0625 2.25 0 0 Z " fill="#C5AA4C" transform="translate(232,123)"/>
<path d="M0 0 C4.22433536 0.15940888 6.35131506 0.39996643 9.5 3.3125 C11 6 11 6 10.8125 8.25 C10 10 10 10 9 11 C4.90980412 11.55775398 3.42469193 11.31625995 0.0625 8.8125 C-2 6 -2 6 -1.875 3.25 C-1 1 -1 1 0 0 Z " fill="#C2AB55" transform="translate(254,113)"/>
<path d="M0 0 C0.99 0.66 1.98 1.32 3 2 C2.75 4.875 2.75 4.875 2 8 C-0.37673528 9.95231826 -1.56996525 10.04095569 -4.625 9.75 C-7 9 -7 9 -9 7 C-8.75 3.9375 -8.75 3.9375 -8 1 C-5.22899606 -0.38550197 -3.0665294 -0.1877467 0 0 Z " fill="#C4AA4F" transform="translate(227,101)"/>
<path d="M0 0 C4.875 0.875 4.875 0.875 6 2 C6.375 4.8125 6.375 4.8125 6 8 C3.8125 10.4375 3.8125 10.4375 1 12 C-1.8125 11.75 -1.8125 11.75 -4 11 C-4.36630156 7.06225823 -4.30233203 5.43460229 -2 2.125 C-1.34 1.42375 -0.68 0.7225 0 0 Z " fill="#C7A942" transform="translate(207,123)"/>
<path d="M0 0 C2.66242821 0.46290221 2.66242821 0.46290221 5.625 0.625 C7.12933594 0.73714844 7.12933594 0.73714844 8.6640625 0.8515625 C9.43492187 0.90054688 10.20578125 0.94953125 11 1 C10.67 1.66 10.34 2.32 10 3 C9.41114014 2.9285376 8.82228027 2.8570752 8.21557617 2.78344727 C-0.75717772 1.82247044 -9.67748461 1.88749154 -18.6875 1.9375 C-20.27538921 1.94252753 -21.86327996 1.94708821 -23.45117188 1.95117188 C-27.30082025 1.96207245 -31.15039253 1.97926717 -35 2 C-34.67 1.01 -34.34 0.02 -34 -1 C-29.47975725 -1.19217298 -24.95926059 -1.37090744 -20.43798828 -1.53710938 C-18.89943132 -1.59557259 -17.3610102 -1.65773085 -15.82275391 -1.72363281 C-13.61385835 -1.81762837 -11.40481787 -1.89840086 -9.1953125 -1.9765625 C-8.16085495 -2.02485703 -8.16085495 -2.02485703 -7.10549927 -2.0741272 C-2.22774341 -2.22774341 -2.22774341 -2.22774341 0 0 Z " fill="#C0A85E" transform="translate(236,94)"/>
<path d="M0 0 C2.5081891 2.44040021 3.79379566 4.1545622 4.625 7.5625 C4 10 4 10 1.375 12.375 C-2.42548577 14.20486352 -4.01674911 14.13807168 -8 13 C-7.67 12.34 -7.34 11.68 -7 11 C-3.9375 10.375 -3.9375 10.375 -1 10 C-0.67 8.35 -0.34 6.7 0 5 C-2.95377498 2.63019987 -2.95377498 2.63019987 -7 3 C-7.33 5.31 -7.66 7.62 -8 10 C-8.66 10 -9.32 10 -10 10 C-10 7.03 -10 4.06 -10 1 C-6.26717845 -0.81308475 -3.94632853 -1.51781866 0 0 Z " fill="#2F0002" transform="translate(274,236)"/>
<path d="M0 0 C-3.72965139 2.03435531 -5.66905042 3 -10 3 C-11.4606285 5.64738916 -12 6.89448334 -12 10 C-14 12 -14 12 -17.375 13.4375 C-20.37607028 14.73106478 -22.52745282 15.92306037 -25 18 C-22.60923058 10.82769173 -16.62609525 5.30462447 -10.1875 1.5 C-4.09756098 -1.36585366 -4.09756098 -1.36585366 0 0 Z " fill="#C1A853" transform="translate(250,4)"/>
<path d="M0 0 C-0.99 0 -1.98 0 -3 0 C-3 0.66 -3 1.32 -3 2 C-3.96099609 2.16435547 -3.96099609 2.16435547 -4.94140625 2.33203125 C-10.32122662 3.31819802 -15.19064499 4.33950574 -20 7 C-21.04289755 9.06890419 -21.04289755 9.06890419 -21 11 C-21 10.34 -21 9.68 -21 9 C-23.31 9.33 -25.62 9.66 -28 10 C-28.33 10.99 -28.66 11.98 -29 13 C-30.32 12.01 -31.64 11.02 -33 10 C-7.43155813 -2.74841079 -7.43155813 -2.74841079 0 0 Z " fill="#C1A658" transform="translate(193,89)"/>
<path d="M0 0 C0.33 1.32 0.66 2.64 1 4 C0.01 4.495 0.01 4.495 -1 5 C-1.73075648 7.3140622 -2.40138258 9.64828869 -3 12 C-3.66 11.67 -4.32 11.34 -5 11 C-5 10.01 -5 9.02 -5 8 C-5.99 8 -6.98 8 -8 8 C-8 8.66 -8 9.32 -8 10 C-13.38490641 10.91657981 -18.54230189 11.11138159 -24 11 C-24 10.67 -24 10.34 -24 10 C-23.23816406 9.90203125 -22.47632813 9.8040625 -21.69140625 9.703125 C-10.23812047 8.09430979 -10.23812047 8.09430979 -0.9375 1.75 C-0.628125 1.1725 -0.31875 0.595 0 0 Z " fill="#BDA45A" transform="translate(298,149)"/>
<path d="M0 0 C0.66 0 1.32 0 2 0 C1.44894091 3.9492568 0.61064629 7.34920174 -1 11 C-1.66 11 -2.32 11 -3 11 C-3.33 12.32 -3.66 13.64 -4 15 C-4.66 14.01 -5.32 13.02 -6 12 C-7.98 12.33 -9.96 12.66 -12 13 C-11.46375 12.608125 -10.9275 12.21625 -10.375 11.8125 C-9.199375 10.9153125 -9.199375 10.9153125 -8 10 C-6.453125 8.824375 -6.453125 8.824375 -4.875 7.625 C-2.07608208 5.06946624 -1.02264753 3.57926635 0 0 Z " fill="#C1A455" transform="translate(297,175)"/>
<path d="M0 0 C0 2 0 4 0 6 C-0.66 6.66 -1.32 7.32 -2 8 C-2.71408334 9.98356483 -3.38617742 11.98315437 -4 14 C-5.65 14.33 -7.3 14.66 -9 15 C-7.53205148 9.1282059 -4.26622657 4.26622657 0 0 Z " fill="#BEA755" transform="translate(177,33)"/>
<path d="M0 0 C1.13732426 3.40401948 0.83989957 5.77456664 0.0625 9.25 C-0.13214844 10.14203125 -0.32679687 11.0340625 -0.52734375 11.953125 C-0.68332031 12.62859375 -0.83929688 13.3040625 -1 14 C-0.34 14 0.32 14 1 14 C1 16 1 16 -0.375 17.625 C-2 19 -2 19 -4 19 C-3.59060025 12.23784552 -2.43046191 6.32837252 0 0 Z " fill="#BFA653" transform="translate(125,119)"/>
<path d="M0 0 C4.875 0.875 4.875 0.875 6 2 C6.04063832 3.66617115 6.042721 5.33388095 6 7 C5.01 5.68 4.02 4.36 3 3 C1.03243548 3.03122943 1.03243548 3.03122943 -1 4 C-2.3045656 6.99615946 -2.3045656 6.99615946 -3 10 C-0.36 9.34 2.28 8.68 5 8 C3.3125 10.0625 3.3125 10.0625 1 12 C-1.75 11.75 -1.75 11.75 -4 11 C-4.36630156 7.06225823 -4.30233203 5.43460229 -2 2.125 C-1.34 1.42375 -0.68 0.7225 0 0 Z " fill="#BAA966" transform="translate(207,123)"/>
<path d="M0 0 C0.66 0.33 1.32 0.66 2 1 C0.96188521 3.50877741 0.26886957 4.81515217 -2 6.375 C-4.70044509 8.56911163 -5.05722718 10.70029514 -6 14 C-6.63815344 15.34721283 -7.29325371 16.68747118 -8 18 C-8.99 17.67 -9.98 17.34 -11 17 C-8.66182116 10.37515995 -4.51233273 5.26438819 0 0 Z " fill="#BDA658" transform="translate(140,95)"/>
<path d="M0 0 C0.33 0 0.66 0 1 0 C0.62625268 7.59952888 -1.57589003 13.2402257 -5 20 C-5.33 20 -5.66 20 -6 20 C-6.042721 18.33388095 -6.04063832 16.66617115 -6 15 C-5.67 14.67 -5.34 14.34 -5 14 C-5.061875 12.88625 -5.12375 11.7725 -5.1875 10.625 C-5.125625 9.42875 -5.06375 8.2325 -5 7 C-3.0625 5.3125 -3.0625 5.3125 -1 4 C-0.20376178 1.90584196 -0.20376178 1.90584196 0 0 Z " fill="#C1A956" transform="translate(219,13)"/>
<path d="M0 0 C2.1875 0.9375 2.1875 0.9375 3.1875 2.9375 C1.2075 2.9375 -0.7725 2.9375 -2.8125 2.9375 C-2.8125 3.5975 -2.8125 4.2575 -2.8125 4.9375 C-4.4625 5.2675 -6.1125 5.5975 -7.8125 5.9375 C-7.4825 7.9175 -7.1525 9.8975 -6.8125 11.9375 C-7.8025 11.6075 -8.7925 11.2775 -9.8125 10.9375 C-9.62700876 6.94943831 -8.98729512 4.66981298 -6.0625 2 C-2.8125 -0.0625 -2.8125 -0.0625 0 0 Z " fill="#BDA95E" transform="translate(190.8125,108.0625)"/>
<path d="M0 0 C1.125 3.75 1.125 3.75 0 6 C-0.0689472 7.37342831 -0.08467708 8.75002102 -0.0625 10.125 C-0.041875 11.40375 -0.02125 12.6825 0 14 C-0.99 14.495 -0.99 14.495 -2 15 C-2.66 14.67 -3.32 14.34 -4 14 C-4.33 14.99 -4.66 15.98 -5 17 C-6.98 17 -8.96 17 -11 17 C-9.01113663 15.43732164 -7.30831696 14.11773162 -4.93359375 13.2109375 C-2.77802097 12.14342792 -2.77802097 12.14342792 -2.20703125 9.6875 C-2.07683594 8.800625 -1.94664062 7.91375 -1.8125 7 C-1.05063291 2.10126582 -1.05063291 2.10126582 0 0 Z " fill="#BEA75C" transform="translate(224,22)"/>
<path d="M0 0 C2.97 0.495 2.97 0.495 6 1 C6.66 2.98 7.32 4.96 8 7 C7.01 7 6.02 7 5 7 C5 5.68 5 4.36 5 3 C1.88214887 3.64644661 1.88214887 3.64644661 1 6 C0.01 5.67 -0.98 5.34 -2 5 C-1.34 3.35 -0.68 1.7 0 0 Z " fill="#BEA856" transform="translate(232,123)"/>
<path d="M0 0 C5.01830384 1.4338011 7.13712499 3.7898897 10 8 C9.8125 10.375 9.8125 10.375 9 12 C8.4225 11.05125 7.845 10.1025 7.25 9.125 C5.04527454 6.0628813 4.18385451 5.53703321 1 4 C0.25 1.875 0.25 1.875 0 0 Z " fill="#32050D" transform="translate(281,229)"/>
<path d="M0 0 C0.99 0.66 1.98 1.32 3 2 C-4.11389522 8.51936219 -4.11389522 8.51936219 -9 10 C-9.33 9.01 -9.66 8.02 -10 7 C-8.68 7 -7.36 7 -6 7 C-5.67 6.01 -5.34 5.02 -5 4 C-4.01 4.33 -3.02 4.66 -2 5 C-2 3.68 -2 2.36 -2 1 C-1.34 0.67 -0.68 0.34 0 0 Z " fill="#C0AA58" transform="translate(299,187)"/>
<path d="M0 0 C1.32 0 2.64 0 4 0 C4.77321882 2.98241547 5.41196203 5.97580475 6 9 C5.34 9 4.68 9 4 9 C3.67 8.01 3.34 7.02 3 6 C2.01 6 1.02 6 0 6 C-1.125 2.25 -1.125 2.25 0 0 Z " fill="#C9AC45" transform="translate(135,120)"/>
<path d="M0 0 C0 3.67718093 -0.82184858 5.07076189 -3 8 C-5.4375 9.1875 -5.4375 9.1875 -8 10 C-9.3405263 10.65208241 -10.67521162 11.31651045 -12 12 C-8.32167983 7.47384007 -4.58913637 3.60575001 0 0 Z " fill="#C0A960" transform="translate(166,68)"/>
<path d="M0 0 C1.88153009 2.82229513 3.00034705 5.27890171 4.1875 8.4375 C4.55230469 9.38496094 4.91710937 10.33242187 5.29296875 11.30859375 C6.01860758 14.07083217 5.97849698 15.36366738 5 18 C4.01 17.67 3.02 17.34 2 17 C2 16.34 2 15.68 2 15 C2.66 15 3.32 15 4 15 C3.525625 14.195625 3.05125 13.39125 2.5625 12.5625 C0.70640382 8.33060071 0.29440022 4.56827922 0 0 Z " fill="#2C030C" transform="translate(234,228)"/>
<path d="M0 0 C3.5682233 5.35233495 4.32665309 11.63026469 4 18 C3.566875 17.1028125 3.566875 17.1028125 3.125 16.1875 C1.95257974 13.80672208 1.95257974 13.80672208 0 11 C-0.1953125 8.30078125 -0.1953125 8.30078125 -0.125 5.3125 C-0.10695313 4.31863281 -0.08890625 3.32476562 -0.0703125 2.30078125 C-0.04710937 1.54152344 -0.02390625 0.78226563 0 0 Z " fill="#BFAA58" transform="translate(306,129)"/>
<path d="M0 0 C1.485 0.99 1.485 0.99 3 2 C3.66 1.34 4.32 0.68 5 0 C6 3 6 3 6 5 C6.33 5.66 6.66 6.32 7 7 C4.69 7.33 2.38 7.66 0 8 C0 5.33333333 0 2.66666667 0 0 Z " fill="#3D0000" transform="translate(313,248)"/>
<path d="M0 0 C1.98 0.99 1.98 0.99 4 2 C4 6.29 4 10.58 4 15 C3.01 15.495 3.01 15.495 2 16 C1.93941406 15.26394531 1.87882812 14.52789062 1.81640625 13.76953125 C1.73261719 12.79371094 1.64882813 11.81789062 1.5625 10.8125 C1.48128906 9.84957031 1.40007812 8.88664063 1.31640625 7.89453125 C1.02333849 5.21350398 0.57296246 2.6337014 0 0 Z " fill="#BDAA56" transform="translate(297,133)"/>
<path d="M0 0 C1.65 0 3.3 0 5 0 C4.56179109 4.55737263 4.14958831 7.57653445 1 11 C1.020625 9.9275 1.04125 8.855 1.0625 7.75 C1.0142016 4.85209576 0.86844115 2.71387859 0 0 Z " fill="#C0A854" transform="translate(252,2)"/>
<path d="M0 0 C6.40140935 0.46555704 11.26769829 2.14711836 17 5 C17 5.33 17 5.66 17 6 C12.62265284 6.37520119 10.66922865 5.27142726 7 3 C4.68308546 2.27833809 2.35151077 1.59940471 0 1 C0 0.67 0 0.34 0 0 Z " fill="#BEA75D" transform="translate(292,29)"/>
<path d="M0 0 C0.66 0.33 1.32 0.66 2 1 C1.4140625 7.15234375 1.4140625 7.15234375 1 9 C0.01 9.495 0.01 9.495 -1 10 C-2.9451 7.08235 -3.45276317 5.37462715 -4 2 C-2.125 0.9375 -2.125 0.9375 0 0 Z " fill="#C9AB47" transform="translate(144,92)"/>
<path d="M0 0 C0.66 0.99 1.32 1.98 2 3 C1.25 6.3125 1.25 6.3125 0 10 C-0.37125 11.134375 -0.7425 12.26875 -1.125 13.4375 C-1.41375 14.283125 -1.7025 15.12875 -2 16 C-2.33 16 -2.66 16 -3 16 C-2.57910004 10.39538469 -2.08386889 5.27913453 0 0 Z " fill="#BBA259" transform="translate(127,161)"/>
<path d="M0 0 C5.27315333 0.4452885 10.01770224 1.08373163 15 3 C15 3.33 15 3.66 15 4 C11.625 4.625 11.625 4.625 8 5 C7.34 4.34 6.68 3.68 6 3 C4.01643517 2.28591666 2.01684563 1.61382258 0 1 C0 0.67 0 0.34 0 0 Z " fill="#BEA95E" transform="translate(246,87)"/>
<path d="M0 0 C0 0.33 0 0.66 0 1 C-2.64 1 -5.28 1 -8 1 C-8 1.66 -8 2.32 -8 3 C-10.97 3.66 -13.94 4.32 -17 5 C-16.67 4.01 -16.34 3.02 -16 2 C-10.63636982 -0.12310361 -5.71642118 -0.23332331 0 0 Z " fill="#C3A757" transform="translate(291,28)"/>
<path d="M0 0 C1.79378179 2.69067269 2.97313958 5.08578257 4.1875 8.0625 C4.55230469 8.94035156 4.91710937 9.81820312 5.29296875 10.72265625 C6 13 6 13 5 15 C2.00240068 13.50120034 1.69211326 11.19691136 0.59765625 8.14453125 C-0.17376071 5.3765057 -0.21405269 2.8540358 0 0 Z " fill="#2F030D" transform="translate(121,229)"/>
<path d="M0 0 C0.4125 0.515625 0.825 1.03125 1.25 1.5625 C-1.625 8.3125 -1.625 8.3125 -2.75 10.5625 C-3.41 10.2325 -4.07 9.9025 -4.75 9.5625 C-3.76 6.9225 -2.77 4.2825 -1.75 1.5625 C-3.4 1.5625 -5.05 1.5625 -6.75 1.5625 C-5.75 -0.4375 -5.75 -0.4375 -3.875 -1.25 C-1.75 -1.4375 -1.75 -1.4375 0 0 Z " fill="#2D010A" transform="translate(75.75,234.4375)"/>
<path d="M0 0 C0 0.33 0 0.66 0 1 C-5.45275886 1.97758625 -10.42516763 1.97344509 -15.9375 1.5625 C-17.10635742 1.48418945 -17.10635742 1.48418945 -18.29882812 1.40429688 C-20.19966772 1.27601936 -22.09990904 1.13892679 -24 1 C-24 0.67 -24 0.34 -24 0 C-21.31288976 -0.19647038 -18.62571669 -0.38239615 -15.9375 -0.5625 C-15.18533203 -0.61857422 -14.43316406 -0.67464844 -13.65820312 -0.73242188 C-8.92140498 -1.04000617 -4.67457788 -0.83807173 0 0 Z " fill="#330410" transform="translate(280,228)"/>
<path d="M0 0 C-3.0469629 1.69433918 -5.82821466 2.49467112 -9.25 3.125 C-10.58804688 3.37636719 -10.58804688 3.37636719 -11.953125 3.6328125 C-12.62859375 3.75398438 -13.3040625 3.87515625 -14 4 C-14 3.01 -14 2.02 -14 1 C-9.23692563 0.04738513 -4.8333472 -0.08333357 0 0 Z " fill="#C2A659" transform="translate(193,97)"/>
<path d="M0 0 C0 2 0 2 -1.25 3.625 C-3 5 -3 5 -7 5 C-7 5.66 -7 6.32 -7 7 C-7.99 7 -8.98 7 -10 7 C-8.89184175 3.78634109 -8.01470446 3.0085776 -5 1.25 C-2 0 -2 0 0 0 Z " fill="#BFA658" transform="translate(218,12)"/>
<path d="M0 0 C0.99 0.33 1.98 0.66 3 1 C2.01 5.95 1.02 10.9 0 16 C-0.33 16 -0.66 16 -1 16 C-0.67 10.72 -0.34 5.44 0 0 Z " fill="#BBA556" transform="translate(185,37)"/>
<path d="M0 0 C0.99 0.33 1.98 0.66 3 1 C3 2.98 3 4.96 3 7 C2.67 7 2.34 7 2 7 C2 5.35 2 3.7 2 2 C1.62875 2.474375 1.2575 2.94875 0.875 3.4375 C-1.62646962 5.52205802 -3.81593418 5.64621491 -7 6 C-2.25 1.125 -2.25 1.125 0 0 Z " fill="#BDA55C" transform="translate(185,27)"/>
<path d="M0 0 C1.65 0 3.3 0 5 0 C3.515 3.96 3.515 3.96 2 8 C1.34 8 0.68 8 0 8 C0 5.36 0 2.72 0 0 Z " fill="#330913" transform="translate(245,271)"/>
<path d="M0 0 C2 1 2 1 2.75 2.9375 C2.8325 3.618125 2.915 4.29875 3 5 C2.34 5.66 1.68 6.32 1 7 C-1.125 6.625 -1.125 6.625 -3 6 C-3 5.34 -3 4.68 -3 4 C-3.66 3.67 -4.32 3.34 -5 3 C-4.360625 2.87625 -3.72125 2.7525 -3.0625 2.625 C-2.0415625 2.315625 -2.0415625 2.315625 -1 2 C-0.67 1.34 -0.34 0.68 0 0 Z " fill="#CFB23D" transform="translate(130,115)"/>
<path d="M0 0 C0 0.66 0 1.32 0 2 C0.66 2.33 1.32 2.66 2 3 C2 3.99 2 4.98 2 6 C-1.37503669 4.8141763 -3.64722731 3.72426311 -6 1 C-3 0 -3 0 0 0 Z " fill="#BFA659" transform="translate(274,103)"/>
<path d="M0 0 C1.65 0 3.3 0 5 0 C5.33 0.99 5.66 1.98 6 3 C4.02 3.66 2.04 4.32 0 5 C-0.66 4.34 -1.32 3.68 -2 3 C-1.34 2.34 -0.68 1.68 0 1 C0 0.67 0 0.34 0 0 Z " fill="#C4A54F" transform="translate(263,98)"/>
<path d="M0 0 C3.37907088 -0.28528741 6.63149663 -0.44949482 10 0 C12.1875 2.375 12.1875 2.375 13 5 C12.67 5.66 12.34 6.32 12 7 C11.13375 6.195625 10.2675 5.39125 9.375 4.5625 C6.37123907 2.03075864 3.96796738 1.28342624 0 1 C0 0.67 0 0.34 0 0 Z " fill="#BEA758" transform="translate(243,37)"/>
<path d="M0 0 C1.98 0.495 1.98 0.495 4 1 C3.60196439 3.88575819 3.20990931 4.82189513 0.9375 6.75 C0.298125 7.1625 -0.34125 7.575 -1 8 C-1 4.88742431 -0.82638376 2.89234315 0 0 Z " fill="#BFA857" transform="translate(292,13)"/>
<path d="M0 0 C2.31 0.66 4.62 1.32 7 2 C6.67 3.98 6.34 5.96 6 8 C5.6596875 7.0409375 5.6596875 7.0409375 5.3125 6.0625 C4.14749104 3.72806339 4.14749104 3.72806339 1.375 3.25 C0.59125 3.1675 -0.1925 3.085 -1 3 C-0.67 2.01 -0.34 1.02 0 0 Z " fill="#2C030D" transform="translate(235,257)"/>
<path d="M0 0 C1.22589844 0.01353516 1.22589844 0.01353516 2.4765625 0.02734375 C3.41628906 0.04474609 3.41628906 0.04474609 4.375 0.0625 C4.045 0.7225 3.715 1.3825 3.375 2.0625 C1.065 1.7325 -1.245 1.4025 -3.625 1.0625 C-3.955 2.7125 -4.285 4.3625 -4.625 6.0625 C-5.285 6.0625 -5.945 6.0625 -6.625 6.0625 C-6.625 4.4125 -6.625 2.7625 -6.625 1.0625 C-4.21954362 -0.14022819 -2.67503047 -0.03821472 0 0 Z " fill="#BEAB68" transform="translate(139.625,166.9375)"/>
<path d="M0 0 C2.27029534 0.39143023 3.83408198 0.88741278 5.75 2.1875 C7.54267046 4.78687216 7.20510719 6.92339216 7 10 C6.79375 9.4225 6.5875 8.845 6.375 8.25 C4.50249112 5.18589456 2.03041481 3.84460032 -1 2 C-0.67 1.34 -0.34 0.68 0 0 Z " fill="#C9A55B" transform="translate(292,164)"/>
<path d="M0 0 C1.65 0 3.3 0 5 0 C5.33 0.66 5.66 1.32 6 2 C5.34 2 4.68 2 4 2 C4 2.66 4 3.32 4 4 C3.01 4.33 2.02 4.66 1 5 C0.34 4.67 -0.32 4.34 -1 4 C-0.67 2.68 -0.34 1.36 0 0 Z " fill="#CEAA43" transform="translate(259,118)"/>
<path d="M0 0 C0.66 0.33 1.32 0.66 2 1 C2 2.32 2 3.64 2 5 C0.68 5.33 -0.64 5.66 -2 6 C-2.33 4.35 -2.66 2.7 -3 1 C-2.01 0.67 -1.02 0.34 0 0 Z " fill="#CCB14A" transform="translate(289,54)"/>
<path d="M0 0 C0.33 0.66 0.66 1.32 1 2 C1.66 2 2.32 2 3 2 C3.33 3.65 3.66 5.3 4 7 C2.68 7.33 1.36 7.66 0 8 C0 5.36 0 2.72 0 0 Z " fill="#CAB546" transform="translate(239,125)"/>
<path d="M0 0 C2.125 0.375 2.125 0.375 4 1 C3.67 2.32 3.34 3.64 3 5 C1.68 5 0.36 5 -1 5 C-1.33 4.01 -1.66 3.02 -2 2 C-1.34 1.34 -0.68 0.68 0 0 Z " fill="#CCB242" transform="translate(153,79)"/>
<path d="M0 0 C-4.0271824 2.20536179 -7.43545749 3.45660208 -12 4 C-8.81646865 0.10901724 -4.81837115 -1.60612372 0 0 Z " fill="#B9A55D" transform="translate(250,4)"/>
<path d="M0 0 C2.19578473 2.67312924 3.19649201 4.67118118 4 8 C4.66 8.33 5.32 8.66 6 9 C5.34 9 4.68 9 4 9 C3.67 9.66 3.34 10.32 3 11 C2.49384702 9.73160474 1.99530901 8.46016898 1.5 7.1875 C1.2215625 6.47980469 0.943125 5.77210938 0.65625 5.04296875 C0 3 0 3 0 0 Z " fill="#2E040D" transform="translate(371,235)"/>
<path d="M0 0 C0 0.66 0 1.32 0 2 C-0.99 2.33 -1.98 2.66 -3 3 C-4.20882096 5.00016466 -4.20882096 5.00016466 -5 7 C-6.32 6.34 -7.64 5.68 -9 5 C-7.87926138 4.16094435 -6.75325453 3.32892169 -5.625 2.5 C-4.99851563 2.0359375 -4.37203125 1.571875 -3.7265625 1.09375 C-2 0 -2 0 0 0 Z " fill="#BFA652" transform="translate(159,101)"/>
<path d="M0 0 C1.65 1.32 3.3 2.64 5 4 C4.67 4.99 4.34 5.98 4 7 C2.68 7 1.36 7 0 7 C0.2784375 6.1028125 0.2784375 6.1028125 0.5625 5.1875 C1.22093687 2.83591238 1.22093687 2.83591238 0 0 Z " fill="#C4A960" transform="translate(316,40)"/>
<path d="M0 0 C-0.4640625 0.86625 -0.4640625 0.86625 -0.9375 1.75 C-1.92583364 3.84294184 -2.5168613 5.74535275 -3 8 C-2.01 8.33 -1.02 8.66 0 9 C-1.32 9 -2.64 9 -4 9 C-4 6.36 -4 3.72 -4 1 C-2 0 -2 0 0 0 Z " fill="#2A060C" transform="translate(249,227)"/>
<path d="M0 0 C0.33 0.99 0.66 1.98 1 3 C0.01 4.485 0.01 4.485 -1 6 C-1 5.34 -1 4.68 -1 4 C-1.99 4.33 -2.98 4.66 -4 5 C-4.66 4.01 -5.32 3.02 -6 2 C-4.7934375 1.7834375 -4.7934375 1.7834375 -3.5625 1.5625 C-1.07896294 1.25864751 -1.07896294 1.25864751 0 0 Z " fill="#35020E" transform="translate(239,265)"/>
<path d="M0 0 C3.26460973 1.80412643 4.88929795 2.83394693 7 6 C5.68 6 4.36 6 3 6 C0 2.78571429 0 2.78571429 0 0 Z " fill="#BFAA5E" transform="translate(288,106)"/>
<path d="M0 0 C2 1.8125 2 1.8125 4 4 C4 4.99 4 5.98 4 7 C2.68 6.34 1.36 5.68 0 5 C0 3.35 0 1.7 0 0 Z " fill="#C4A755" transform="translate(257,49)"/>
<path d="M0 0 C0.33 0 0.66 0 1 0 C1 1.65 1 3.3 1 5 C1.66 5.33 2.32 5.66 3 6 C2.34 7.32 1.68 8.64 1 10 C0.34 9.67 -0.32 9.34 -1 9 C-0.67 6.03 -0.34 3.06 0 0 Z " fill="#2D010B" transform="translate(381,246)"/>
<path d="M0 0 C0.33 0 0.66 0 1 0 C0.25 7.75 0.25 7.75 -2 10 C-2.1953125 3.9453125 -2.1953125 3.9453125 -2 2 C-1.34 1.34 -0.68 0.68 0 0 Z " fill="#33020E" transform="translate(291,241)"/>
<path d="M0 0 C2.475 0.495 2.475 0.495 5 1 C4.67 2.32 4.34 3.64 4 5 C3.01 5 2.02 5 1 5 C0.67 3.35 0.34 1.7 0 0 Z " fill="#470515" transform="translate(232,241)"/>
<path d="M0 0 C0.99 0.33 1.98 0.66 3 1 C2.34 2.98 1.68 4.96 1 7 C-0.32 6.67 -1.64 6.34 -3 6 C-2.34 5.67 -1.68 5.34 -1 5 C-0.34444881 2.47266765 -0.34444881 2.47266765 0 0 Z " fill="#C3A858" transform="translate(303,179)"/>
<path d="M0 0 C0 3.62453269 -0.92469613 5.07920195 -3 8 C-3.99 8.33 -4.98 8.66 -6 9 C-4.47291037 5.56404834 -2.40072955 2.88087546 0 0 Z " fill="#BEA553" transform="translate(166,68)"/>
<path d="M0 0 C0.66 0.66 1.32 1.32 2 2 C1.34 2 0.68 2 0 2 C0 1.34 0 0.68 0 0 Z " fill="#FFFF00" transform="translate(234,55)"/>
<path d="M0 0 C0.66 0.66 1.32 1.32 2 2 C1.34 2 0.68 2 0 2 C0 1.34 0 0.68 0 0 Z " fill="#FFFF00" transform="translate(286,45)"/>
<path d="M0 0 C0.66 0 1.32 0 2 0 C1.67 0.66 1.34 1.32 1 2 C0.67 1.34 0.34 0.68 0 0 Z " fill="#FFFF00" transform="translate(253,44)"/>
<path d="M0 0 C0.66 0 1.32 0 2 0 C1.67 0.66 1.34 1.32 1 2 C0.67 1.34 0.34 0.68 0 0 Z " fill="#FFFF00" transform="translate(251,42)"/>
<path d="M0 0 C0.66 0.66 1.32 1.32 2 2 C1.34 2 0.68 2 0 2 C0 1.34 0 0.68 0 0 Z " fill="#FFFF00" transform="translate(249,40)"/>
<path d="" fill="#FFFF00" transform="translate(0,0)"/>
<path d="M0 0 C2 1 2 1 2 1 Z " fill="#FFFF00" transform="translate(247,39)"/>
<path d="" fill="#000000" transform="translate(0,0)"/>
<path d="" fill="#000000" transform="translate(0,0)"/>
<path d="" fill="#000000" transform="translate(0,0)"/>
<path d="" fill="#000000" transform="translate(0,0)"/>
<path d="" fill="#000000" transform="translate(0,0)"/>
<path d="" fill="#000000" transform="translate(0,0)"/>
<path d="" fill="#FFFFFF" transform="translate(0,0)"/>
<path d="" fill="#FFFF00" transform="translate(0,0)"/>
<path d="" fill="#FFFF00" transform="translate(0,0)"/>
<path d="" fill="#FFFF00" transform="translate(0,0)"/>
<path d="" fill="#FFFF00" transform="translate(0,0)"/>
<path d="" fill="#FFFFFF" transform="translate(0,0)"/>
<path d="" fill="#808080" transform="translate(0,0)"/>
<path d="" fill="#FFFFFF" transform="translate(0,0)"/>
</svg>
